<svg width="852" height="218" viewBox="0 0 852 218" fill="none" xmlns="http://www.w3.org/2000/svg">
<g opacity="0.2">
<path d="M-81.0381 209.433C-80.9827 209.323 -81.023 209.281 -80.9044 209.246C-76.9315 208.081 178.298 133.329 345.683 106.142C503.374 80.5297 748.384 70.2884 779.692 69.0608C781.627 68.9849 783.255 70.3675 783.565 72.2788C783.94 74.5856 782.349 76.6878 780.012 76.7407C745.178 77.5296 504.617 83.797 346.5 109.479C181.606 136.261 -63.8285 205.341 -80.5847 210.081C-80.9574 210.186 -81.2115 209.78 -81.0381 209.433Z" fill="url(#paint0_linear_87_39499)"/>
<g filter="url(#filter0_f_87_39499)">
<ellipse cx="748.173" cy="75.3923" rx="39.5" ry="10.5" transform="rotate(-0.882221 748.173 75.3923)" fill="white"/>
</g>
</g>
<defs>
<filter id="filter0_f_87_39499" x="644.677" y="0.875732" width="206.991" height="149.033" filterUnits="userSpaceOnUse" color-interpolation-filters="sRGB">
<feFlood flood-opacity="0" result="BackgroundImageFix"/>
<feBlend mode="normal" in="SourceGraphic" in2="BackgroundImageFix" result="shape"/>
<feGaussianBlur stdDeviation="32" result="effect1_foregroundBlur_87_39499"/>
</filter>
<linearGradient id="paint0_linear_87_39499" x1="784.845" y1="72.368" x2="58.9867" y2="170.159" gradientUnits="userSpaceOnUse">
<stop stop-color="white"/>
<stop offset="0.526042" stop-color="white" stop-opacity="0.15"/>
<stop offset="1" stop-color="white" stop-opacity="0"/>
</linearGradient>
</defs>
</svg>
