<svg width="53" height="68" viewBox="0 0 53 68" fill="none" xmlns="http://www.w3.org/2000/svg">
<path d="M44.8767 44.8173H27.8922C27.7385 44.8173 27.6138 44.6912 27.6138 44.5357V32.7091C27.6138 32.5537 27.7385 32.4275 27.8922 32.4275H38.5367C42.4782 32.4275 45.8584 29.3334 45.9865 25.3496C46.0984 21.8641 43.7986 18.9074 40.6472 18.0441C40.4852 17.9996 40.4011 17.8284 40.4635 17.6702C42.3513 12.9007 38.8714 7.64795 33.7393 7.64795C30.402 7.64795 27.5948 9.9333 26.7578 13.0398C26.7083 13.2245 26.5056 13.3056 26.3435 13.2065C22.2773 10.7116 16.8656 12.8376 15.6166 17.5755C15.5837 17.6978 15.4774 17.785 15.3521 17.785H14.4533C10.5552 17.785 7.2012 20.8143 7.01799 24.7526C6.82198 28.9567 10.1348 32.4275 14.2489 32.4275H25.1078C25.2615 32.4275 25.3863 32.5537 25.3863 32.7091V44.5357C25.3863 44.6912 25.2615 44.8173 25.1078 44.8173H8.12338C6.89325 44.8173 5.8959 45.8259 5.8959 47.07V53.8281C5.8959 55.0721 6.89325 56.0807 8.12338 56.0807H44.8767C46.1068 56.0807 47.1041 55.0721 47.1041 53.8281V47.07C47.1041 45.8259 46.1068 44.8173 44.8767 44.8173ZM16.5983 21.7886C22.4226 17.2022 30.5841 17.2072 36.4017 21.7886C36.6411 21.9773 36.6734 22.3355 36.4785 22.5714L35.7435 23.4618C35.5558 23.6893 35.2267 23.7181 34.995 23.5367C29.9905 19.6238 23.0034 19.6283 18.0044 23.5367C17.7728 23.7181 17.4437 23.6893 17.256 23.4618L16.5209 22.5714C16.3266 22.3355 16.3583 21.9773 16.5983 21.7886ZM21.5333 28.652L20.7966 27.7588C20.6017 27.5223 20.6329 27.1619 20.8779 26.9788C24.2152 24.4817 28.7882 24.4845 32.1222 26.9788C32.3672 27.1619 32.3984 27.5223 32.2035 27.7588L31.4656 28.6531C31.2802 28.8784 30.9577 28.906 30.7222 28.7348C28.2074 26.9045 24.7993 26.8994 22.279 28.7342C22.0428 28.9054 21.7199 28.8778 21.5333 28.652ZM11.4646 52.7017C10.2345 52.7017 9.23711 51.6931 9.23711 50.449C9.23711 49.205 10.2345 48.1963 11.4646 48.1963C12.6947 48.1963 13.6921 49.205 13.6921 50.449C13.6921 51.6931 12.6947 52.7017 11.4646 52.7017ZM18.147 52.7017C16.9169 52.7017 15.9195 51.6931 15.9195 50.449C15.9195 49.205 16.9169 48.1963 18.147 48.1963C19.3771 48.1963 20.3745 49.205 20.3745 50.449C20.3745 51.6931 19.3771 52.7017 18.147 52.7017ZM24.8294 52.7017C23.5993 52.7017 22.6019 51.6931 22.6019 50.449C22.6019 49.205 23.5993 48.1963 24.8294 48.1963C26.0595 48.1963 27.0569 49.205 27.0569 50.449C27.0569 51.6931 26.0595 52.7017 24.8294 52.7017ZM42.6397 51.5754H33.7298C32.258 51.5754 32.2564 49.3227 33.7298 49.3227H42.6397C44.1115 49.3227 44.1132 51.5754 42.6397 51.5754Z" fill="url(#paint0_linear_90_41339)"/>
<defs>
<linearGradient id="paint0_linear_90_41339" x1="5.8959" y1="7.64795" x2="55.3956" y2="45.1311" gradientUnits="userSpaceOnUse">
<stop stop-color="#7C5DF7"/>
<stop offset="1" stop-color="#C45EFF"/>
</linearGradient>
</defs>
</svg>
