<svg width="28" height="35" viewBox="0 0 28 35" fill="none" xmlns="http://www.w3.org/2000/svg">
<path fill-rule="evenodd" clip-rule="evenodd" d="M10.4018 2.41602C8.48578 3.46995 6.91821 4.36178 6.91854 4.39806C6.9194 4.49168 11.517 6.95037 11.6802 6.94437C11.7545 6.94175 12.293 6.68 12.8768 6.36278L13.9386 5.78613L15.0982 6.41551L16.2577 7.04501L18.1566 6.144C21.0179 4.78633 21.3151 4.63756 21.2685 4.58757C21.2067 4.52125 20.1804 3.93908 17.396 2.39118C16.0503 1.64307 14.7443 0.909572 14.4935 0.761148C14.2428 0.612724 14.0035 0.493327 13.9617 0.495638C13.9199 0.49795 12.3179 1.36213 10.4018 2.41602ZM1.99815 7.01116L0.0035984 8.09905V12.8736C0.0035984 15.4996 0.0297889 17.6481 0.0619148 17.6481C0.0939295 17.6481 1.07526 17.1989 2.24259 16.6499L4.36501 15.6517V10.619L5.40217 11.2157C6.20139 11.6751 7.00109 12.1335 7.80127 12.591L9.16317 13.3696L9.76919 13.0803C10.1493 12.8985 10.5286 12.715 10.9071 12.5297C11.1996 12.3858 11.9177 12.0443 12.5027 11.7706C13.0878 11.4968 13.6293 11.2215 13.7061 11.1587C13.8082 11.0754 12.5642 10.3495 9.10519 8.47385C6.49783 7.06001 4.28088 5.90772 4.17864 5.91324C4.0764 5.91876 3.09518 6.41277 1.99815 7.01116ZM21.6279 7.31667C20.2695 7.96422 19.1571 8.51992 19.1559 8.55161C19.1547 8.58326 19.8951 9.04812 20.8013 9.58447C21.7074 10.1209 22.4488 10.5885 22.4488 10.6237C22.4488 10.6589 21.647 11.0691 20.667 11.5356C19.687 12.0019 17.2098 13.1832 15.1621 14.1607L8.30089 17.4356C6.57495 18.2594 5.01922 19.002 4.84371 19.086C1.31839 20.7711 0.349416 21.2387 0.216349 21.319C0.0825407 21.3998 0.0522325 21.8693 0.0284163 24.2256L0 27.036L1.78362 27.9956L3.56721 28.9552L6.04042 27.7766C7.40073 27.1284 8.51364 26.5641 8.51364 26.5225C8.51364 26.4811 8.26227 26.3082 7.95518 26.1381C7.64794 25.968 7.01374 25.5915 6.54568 25.3012C6.07767 25.0109 5.61099 24.7446 5.50853 24.7092C5.4061 24.674 5.32378 24.6124 5.32545 24.5722C5.32716 24.5321 6.41625 23.9859 7.74551 23.3582C10.3273 22.1393 12.3032 21.1998 16.545 19.1743C18.4418 18.2687 20.3388 17.3637 22.2361 16.4592C23.9035 15.6645 25.8422 14.7363 26.5443 14.3966L27.8208 13.779L27.8492 10.9366L27.8777 8.09435L26.0687 7.11387C25.0736 6.57466 24.2232 6.1348 24.1786 6.1364C24.134 6.13789 22.9862 6.66895 21.6279 7.31667ZM27.3361 17.5709C27.0695 17.7084 26.543 17.9658 26.166 18.1429C25.789 18.32 25.0736 18.6608 24.5763 18.9005L23.6721 19.3359L23.6515 21.8313C23.6401 23.2037 23.5923 24.3205 23.5451 24.3132C23.4381 24.2964 21.7435 23.3787 20.04 22.4148C18.8105 21.7192 18.7332 21.6916 18.4443 21.8427C18.2773 21.9301 17.279 22.4028 16.2259 22.8935C15.1727 23.384 14.2768 23.8174 14.2346 23.8567C14.1926 23.8959 16.3121 25.1089 18.9448 26.5525L23.7314 29.1771L25.7761 28.0602C26.9006 27.446 27.8568 26.8857 27.9009 26.8152C28 26.6568 27.9915 17.2991 27.8923 17.3118C27.853 17.3168 27.6027 17.4334 27.3361 17.5709ZM16.0131 28.5544C15.6584 28.7154 15.3039 28.8767 14.9494 29.0382C13.8789 29.5272 14.0887 29.5434 12.8151 28.8739C11.9669 28.4281 11.6013 28.2905 11.4426 28.3573C11.3235 28.4074 10.299 28.8941 9.16573 29.4388C8.03249 29.9836 7.06597 30.4293 7.01789 30.4293C6.54242 30.4293 7.33288 30.928 10.3831 32.5527L13.9603 34.458L15.4654 33.6733C16.2932 33.2418 17.9629 32.3776 19.1759 31.7529C20.3887 31.1281 21.3661 30.6008 21.3479 30.5809C21.3294 30.5611 20.3131 30.01 19.0893 29.3563L16.8641 28.1679L16.0131 28.5544Z" fill="url(#paint0_linear_151_594)"/>
<defs>
<linearGradient id="paint0_linear_151_594" x1="0" y1="0.495605" x2="34.3888" y2="25.7025" gradientUnits="userSpaceOnUse">
<stop stop-color="#7C5DF7"/>
<stop offset="1" stop-color="#C45EFF"/>
</linearGradient>
</defs>
</svg>
