<svg width="32" height="39" viewBox="0 0 32 39" fill="none" xmlns="http://www.w3.org/2000/svg">
<g clip-path="url(#clip0_151_583)">
<path d="M12.549 9.12268C12.1497 9.06386 12.1307 9.04425 12.3209 9.02464C12.6821 8.96582 13.5187 9.04425 14.1081 9.18151C15.4771 9.51484 16.713 10.3776 18.025 11.8874L18.3672 12.2992L18.8616 12.2207C20.9721 11.8678 23.1396 12.1423 24.9459 13.005C25.4403 13.2403 26.2198 13.7109 26.3149 13.8286C26.3529 13.8678 26.41 14.1227 26.448 14.3776C26.5811 15.2992 26.5241 15.9854 26.2389 16.5148C26.0867 16.809 26.0867 16.8874 26.1818 17.1423C26.2579 17.3384 26.486 17.4756 26.6952 17.4756C27.1515 17.4756 27.6269 16.7305 27.855 15.6913L27.9501 15.2795L28.1212 15.4756C29.0909 16.5933 29.8515 18.1423 29.9655 19.2403L30.0036 19.5344L29.8324 19.2795C29.5472 18.8286 29.281 18.5344 28.9198 18.2795C28.2733 17.8286 27.5888 17.6913 25.7825 17.5933C24.1474 17.4952 23.2157 17.358 22.303 17.0443C20.7439 16.5148 19.9453 15.8286 18.101 13.2992C17.2834 12.1815 16.7701 11.5737 16.2567 11.0639C15.1349 9.94621 14.0131 9.35798 12.549 9.12268Z" fill="url(#paint0_linear_151_583)"/>
<path d="M26.7142 11.6129C26.7522 10.8678 26.8473 10.3776 27.0564 9.9266C27.1325 9.75012 27.2085 9.59326 27.2276 9.59326C27.2466 9.59326 27.2085 9.73052 27.1515 9.88738C26.9994 10.3188 26.9804 10.9266 27.0755 11.6129C27.2085 12.4952 27.2656 12.6129 28.1782 13.5737C28.5965 14.0246 29.0909 14.5933 29.281 14.8286L29.6043 15.2599L29.281 14.9462C28.8817 14.554 27.9691 13.8089 27.7599 13.7109C27.6268 13.6325 27.6078 13.6325 27.5128 13.7305C27.4367 13.8089 27.4177 13.9266 27.4177 14.4952C27.3987 15.3776 27.2846 15.9266 26.9994 16.4952C26.8473 16.7893 26.8283 16.7305 26.9614 16.3972C27.0564 16.1423 27.0755 16.0246 27.0755 15.1815C27.0755 13.4756 26.8853 13.0638 25.7255 12.3776C25.4403 12.2011 24.9459 11.9462 24.6607 11.8089C24.3565 11.6717 24.1283 11.554 24.1473 11.554C24.1854 11.5148 25.3072 11.8482 25.7445 12.0442C26.41 12.3188 26.5241 12.3384 26.6001 12.3188C26.6571 12.2599 26.6952 12.1031 26.7142 11.6129Z" fill="url(#paint1_linear_151_583)"/>
<path d="M13.3286 14.5342C12.53 13.3969 12.0166 11.6322 12.1307 10.3185L12.1687 9.90674L12.3589 9.94595C12.7011 10.0048 13.2906 10.2401 13.5758 10.4165C14.3363 10.8871 14.6786 11.5342 15.0018 13.142C15.0969 13.6126 15.23 14.1616 15.287 14.3381C15.3821 14.6322 15.7433 15.3185 16.0475 15.7499C16.2567 16.0636 16.1236 16.2205 15.6483 16.1812C14.9257 16.1028 13.956 15.4165 13.3286 14.5342Z" fill="url(#paint2_linear_151_583)"/>
<path d="M25.7445 23.0638C21.9798 21.4951 20.6488 20.1422 20.6488 17.8481C20.6488 17.5147 20.6678 17.2402 20.6678 17.2402C20.6869 17.2402 20.82 17.3579 20.9911 17.4951C21.7516 18.1226 22.6072 18.3971 24.9839 18.75C26.3719 18.9657 27.1705 19.1226 27.893 19.3775C30.1937 20.1618 31.6197 21.7696 31.962 23.9461C32.057 24.5736 32 25.7696 31.8479 26.3971C31.7148 26.8873 31.3345 27.7893 31.2394 27.8089C31.2204 27.8089 31.1824 27.7108 31.1824 27.554C31.1444 26.7304 30.7451 25.9461 30.0796 25.3383C29.281 24.6324 28.2543 24.103 25.7445 23.0638Z" fill="url(#paint3_linear_151_583)"/>
<path d="M23.0826 23.7109C23.0446 23.4168 22.9495 23.0442 22.8925 22.8874L22.7974 22.5933L22.9685 22.8089C23.2157 23.1031 23.4058 23.456 23.5769 23.9462C23.71 24.3188 23.71 24.4364 23.71 25.0442C23.71 25.6325 23.691 25.7697 23.5769 26.1031C23.3868 26.6325 23.1586 27.005 22.7784 27.4168C22.0939 28.1423 21.2002 28.5344 19.9263 28.7109C19.6982 28.7305 19.0517 28.7893 18.4813 28.8286C17.0553 28.907 16.1046 29.0638 15.249 29.3776C15.1349 29.4168 15.0208 29.456 15.0018 29.4364C14.9638 29.3972 15.5532 29.0442 16.0285 28.8089C16.694 28.4756 17.3785 28.2991 18.8806 28.0246C19.6221 27.907 20.3826 27.7501 20.5728 27.6717C22.4551 27.0638 23.3868 25.554 23.0826 23.7109Z" fill="url(#paint4_linear_151_583)"/>
<path d="M24.8128 26.8677C24.3185 25.75 24.2044 24.6912 24.4706 23.6912C24.5086 23.5932 24.5466 23.4951 24.5847 23.4951C24.6227 23.4951 24.7368 23.5539 24.8509 23.6324C25.079 23.7892 25.5544 24.0637 26.7712 24.75C28.3114 25.6128 29.186 26.2794 29.7944 27.0441C30.3268 27.7108 30.65 28.4755 30.8021 29.4167C30.8972 29.9461 30.8402 31.2206 30.7071 31.75C30.2888 33.4167 29.3381 34.75 27.9501 35.5147C27.7409 35.6324 27.5698 35.7108 27.5508 35.7108C27.5318 35.7108 27.6078 35.5147 27.7219 35.2794C28.1783 34.2794 28.2353 33.3186 27.8931 32.2402C27.6839 31.5735 27.2466 30.7696 26.372 29.4167C25.3262 27.8481 25.079 27.4363 24.8128 26.8677Z" fill="url(#paint5_linear_151_583)"/>
<path d="M10.6476 32.8679C12.0547 31.6523 13.7849 30.7895 15.382 30.515C16.0665 30.3974 17.2074 30.4366 17.8348 30.613C18.8425 30.8876 19.7552 31.4758 20.2305 32.2013C20.6869 32.9072 20.896 33.515 21.1052 34.8679C21.1812 35.3974 21.2763 35.9464 21.2953 36.064C21.4474 36.7699 21.7516 37.3189 22.1319 37.613C22.7213 38.064 23.7481 38.0836 24.7558 37.6915C24.9269 37.6327 25.079 37.5738 25.079 37.5934C25.117 37.6327 24.6037 37.9856 24.2614 38.1621C23.7861 38.417 23.4058 38.4954 22.8924 38.4954C21.9798 38.4954 21.2002 38.0052 20.5728 37.0248C20.4397 36.8287 20.1735 36.2601 19.9453 35.7307C19.2798 34.1425 18.9376 33.6719 18.158 33.1425C17.4735 32.6915 16.5989 32.5934 15.9334 32.9268C15.0588 33.3581 14.8306 34.515 15.4391 35.2209C15.6863 35.515 16.1426 35.7503 16.5229 35.8091C17.2264 35.9072 17.8348 35.3385 17.8348 34.613C17.8348 34.1425 17.6637 33.8679 17.2074 33.6523C16.5989 33.3777 15.9334 33.6915 15.9525 34.2993C15.9525 34.5542 16.0665 34.7111 16.3137 34.8287C16.4658 34.9072 16.4658 34.9072 16.3517 34.8876C15.8003 34.7699 15.6672 34.064 16.1046 33.613C16.6369 33.064 17.7587 33.2993 18.139 34.064C18.2911 34.3777 18.3101 35.0052 18.1771 35.3974C17.8538 36.2601 16.9412 36.7111 16.0095 36.4562C15.382 36.2797 15.1158 36.1032 14.3553 35.2993C13.0243 33.8876 12.511 33.613 10.6096 33.3189L10.2484 33.2601L10.6476 32.8679Z" fill="url(#paint6_linear_151_583)"/>
<path fill-rule="evenodd" clip-rule="evenodd" d="M0.646425 1.31872C5.07661 6.86774 11.9025 15.4952 12.2448 15.9658C12.53 16.3579 12.4159 16.7305 11.9405 17.005C11.6744 17.1619 11.123 17.3187 10.8568 17.3187C10.5525 17.3187 10.1913 17.1619 9.94411 16.907C9.77298 16.7305 9.03145 15.6128 7.35825 12.9266C6.08433 10.8677 5.00056 9.16186 4.98154 9.14225C4.90549 9.10304 4.90549 9.10304 7.22515 13.3775C8.68921 16.0638 9.16455 17.0246 9.16455 17.1423C9.16455 17.3972 9.08849 17.5344 8.78427 17.8874C8.27091 18.4756 8.04274 19.1423 7.87162 20.5344C7.68148 22.0834 7.16811 23.1815 5.70406 25.0442C4.84845 26.1423 4.71535 26.3383 4.5062 26.7893C4.24001 27.3383 4.16395 27.6521 4.12593 28.3579C4.0879 29.103 4.16395 29.5736 4.3731 30.2795C4.56324 30.907 4.77239 31.3187 5.28576 32.1226C5.72307 32.8285 5.98927 33.3579 5.98927 33.554C5.98927 33.7109 6.02729 33.7109 6.71178 33.554C8.34696 33.1619 9.69693 32.4952 10.4385 31.6717C10.8948 31.1619 11.0089 30.8874 11.0089 30.1815C11.0089 29.7305 10.9899 29.6325 10.8758 29.3579C10.6856 28.9266 10.3244 28.5736 9.54482 28.0246C8.51808 27.2991 8.08077 26.7109 7.96669 25.9266C7.87162 25.2599 7.9857 24.8089 8.55611 23.5736C9.14553 22.2991 9.29764 21.7697 9.39271 20.4756C9.44975 19.6521 9.54482 19.3187 9.77299 19.0638C10.0202 18.7893 10.2293 18.6913 10.8187 18.6128C11.7884 18.4756 12.4159 18.2207 12.9102 17.7305C13.3476 17.3187 13.5377 16.907 13.5567 16.2991L13.5757 15.8481L13.3285 15.5736C12.4349 14.5148 0.0570017 0.475586 -3.92729e-05 0.475586C-0.0190529 0.475586 0.285166 0.848135 0.646425 1.31872ZM6.48362 29.2011C6.69277 28.8285 6.57869 28.3579 6.23644 28.1226C5.91321 27.907 5.41886 28.005 5.41886 28.2991C5.41886 28.3775 5.45688 28.456 5.57096 28.4952C5.74209 28.5932 5.7611 28.6913 5.62801 28.907C5.49491 29.1226 5.49491 29.3187 5.66603 29.456C5.93222 29.6717 6.29348 29.554 6.48362 29.2011Z" fill="url(#paint7_linear_151_583)"/>
<path fill-rule="evenodd" clip-rule="evenodd" d="M14.1842 18.8873C13.7279 19.0245 13.2905 19.5343 13.1574 20.0441C13.0814 20.3579 13.1194 20.9265 13.2525 21.103C13.4617 21.3775 13.6518 21.4559 14.1842 21.4559C15.2299 21.4559 16.1236 20.9853 16.2186 20.4167C16.3137 19.9461 15.9144 19.2991 15.363 19.0049C15.0778 18.8481 14.4884 18.7892 14.1842 18.8873ZM15.4011 19.8677C15.5532 19.6324 15.4961 19.3775 15.2109 19.201C14.6976 18.8677 13.918 19.1422 13.918 19.652C13.918 19.9069 14.3173 20.1814 14.6976 20.1814C14.9447 20.1814 15.287 20.0245 15.4011 19.8677Z" fill="url(#paint8_linear_151_583)"/>
</g>
<defs>
<linearGradient id="paint0_linear_151_583" x1="12.204" y1="9.00488" x2="22.5123" y2="24.5137" gradientUnits="userSpaceOnUse">
<stop stop-color="#7C5DF7"/>
<stop offset="1" stop-color="#C45EFF"/>
</linearGradient>
<linearGradient id="paint1_linear_151_583" x1="24.1462" y1="9.59326" x2="31.1677" y2="14.4027" gradientUnits="userSpaceOnUse">
<stop stop-color="#7C5DF7"/>
<stop offset="1" stop-color="#C45EFF"/>
</linearGradient>
<linearGradient id="paint2_linear_151_583" x1="12.1149" y1="9.90674" x2="17.8573" y2="13.185" gradientUnits="userSpaceOnUse">
<stop stop-color="#7C5DF7"/>
<stop offset="1" stop-color="#C45EFF"/>
</linearGradient>
<linearGradient id="paint3_linear_151_583" x1="20.6488" y1="17.2402" x2="31.8596" y2="27.9645" gradientUnits="userSpaceOnUse">
<stop stop-color="#7C5DF7"/>
<stop offset="1" stop-color="#C45EFF"/>
</linearGradient>
<linearGradient id="paint4_linear_151_583" x1="15" y1="22.5933" x2="22.2161" y2="30.7614" gradientUnits="userSpaceOnUse">
<stop stop-color="#7C5DF7"/>
<stop offset="1" stop-color="#C45EFF"/>
</linearGradient>
<linearGradient id="paint5_linear_151_583" x1="24.3308" y1="23.4951" x2="34.3835" y2="28.2693" gradientUnits="userSpaceOnUse">
<stop stop-color="#7C5DF7"/>
<stop offset="1" stop-color="#C45EFF"/>
</linearGradient>
<linearGradient id="paint6_linear_151_583" x1="10.2484" y1="30.4478" x2="17.8439" y2="42.9073" gradientUnits="userSpaceOnUse">
<stop stop-color="#7C5DF7"/>
<stop offset="1" stop-color="#C45EFF"/>
</linearGradient>
<linearGradient id="paint7_linear_151_583" x1="-0.00088501" y1="0.475586" x2="22.6569" y2="8.72289" gradientUnits="userSpaceOnUse">
<stop stop-color="#7C5DF7"/>
<stop offset="1" stop-color="#C45EFF"/>
</linearGradient>
<linearGradient id="paint8_linear_151_583" x1="13.1187" y1="18.8394" x2="15.8924" y2="21.7772" gradientUnits="userSpaceOnUse">
<stop stop-color="#7C5DF7"/>
<stop offset="1" stop-color="#C45EFF"/>
</linearGradient>
<clipPath id="clip0_151_583">
<rect width="32" height="38" fill="white" transform="translate(0 0.475586)"/>
</clipPath>
</defs>
</svg>
