<svg width="27" height="28" viewBox="0 0 27 28" fill="none" xmlns="http://www.w3.org/2000/svg">
<g clip-path="url(#clip0_151_577)">
<path d="M5.62238 13.3155C5.62238 12.6924 6.1343 12.1805 6.75638 12.1805H8.66906C9.29222 12.1805 9.82574 12.6924 9.82574 13.3382V20.5515C10.0482 20.4846 10.315 20.4176 10.6271 20.3507C11.0494 20.2394 11.3615 19.8614 11.3615 19.4154V10.4654C11.3615 9.84227 11.8734 9.30767 12.5182 9.30767H14.4309C15.054 9.30767 15.5875 9.81959 15.5875 10.4654V18.7706C15.5875 18.7706 16.0552 18.5697 16.5217 18.3699C16.8781 18.2144 17.1006 17.8807 17.1006 17.4789V7.57211C17.1006 6.94895 17.6125 6.41435 18.2357 6.41435H20.1484C20.7715 6.41435 21.2835 6.92627 21.2835 7.57211V15.7434C22.9294 14.5413 24.6207 13.0941 25.9555 11.3575C26.3562 10.8456 26.4675 10.1771 26.245 9.55391C23.7977 2.51878 16.1016 -1.22233 9.0719 1.22711C2.04218 3.67655 -1.69462 11.3791 0.751581 18.4153C1.01834 19.2167 1.37474 19.9737 1.79702 20.7081C2.13074 21.287 2.7539 21.6207 3.42134 21.5538C3.77774 21.5311 4.2227 21.4868 4.77782 21.4199C5.26706 21.3756 5.62346 20.9522 5.62346 20.4619L5.62238 13.3155Z" fill="url(#paint0_linear_151_577)"/>
<path d="M5.57715 24.8933C11.6057 29.2792 20.0373 27.9432 24.4188 21.9103C26.0874 19.5948 26.9989 16.8117 26.9989 13.9626C26.9989 13.6505 26.9763 13.3395 26.9547 13.0273C22.0396 20.3962 12.9406 23.8468 5.57715 24.8933Z" fill="url(#paint1_linear_151_577)"/>
</g>
<defs>
<linearGradient id="paint0_linear_151_577" x1="0.00164795" y1="0.476074" x2="22.2644" y2="25.242" gradientUnits="userSpaceOnUse">
<stop stop-color="#7C5DF7"/>
<stop offset="1" stop-color="#C45EFF"/>
</linearGradient>
<linearGradient id="paint1_linear_151_577" x1="5.57715" y1="13.0273" x2="20.3467" y2="32.5168" gradientUnits="userSpaceOnUse">
<stop stop-color="#7C5DF7"/>
<stop offset="1" stop-color="#C45EFF"/>
</linearGradient>
<clipPath id="clip0_151_577">
<rect width="27" height="27" fill="white" transform="translate(0 0.475586)"/>
</clipPath>
</defs>
</svg>
