<svg width="51" height="51" viewBox="0 0 51 51" fill="none" xmlns="http://www.w3.org/2000/svg">
<path d="M46.6381 27.5791C47.8807 27.5791 48.8881 26.5717 48.8881 25.3291C48.8881 24.0865 47.8807 23.0791 46.6381 23.0791L46.6381 27.5791ZM45.7943 25.3291C45.7943 36.5129 36.7281 45.5791 25.5443 45.5791V50.0791C39.2134 50.0791 50.2943 38.9982 50.2943 25.3291H45.7943ZM25.5443 45.5791C14.3605 45.5791 5.29431 36.5129 5.29431 25.3291H0.794312C0.794312 38.9982 11.8753 50.0791 25.5443 50.0791V45.5791ZM5.29431 25.3291C5.29431 14.1453 14.3605 5.0791 25.5443 5.0791V0.579102C11.8753 0.579102 0.794312 11.6601 0.794312 25.3291H5.29431ZM25.5443 5.0791C36.7281 5.0791 45.7943 14.1453 45.7943 25.3291H50.2943C50.2943 11.6601 39.2134 0.579102 25.5443 0.579102V5.0791ZM25.5443 45.5791C24.9296 45.5791 24.1667 45.3038 23.2766 44.4433C22.3757 43.5723 21.4615 42.2034 20.6451 40.3372C19.0151 36.6114 17.9506 31.307 17.9506 25.3291H13.4506C13.4506 31.7776 14.5896 37.7232 16.5224 42.1408C17.4873 44.3463 18.6943 46.2724 20.1488 47.6786C21.6141 49.0952 23.4407 50.0791 25.5443 50.0791V45.5791ZM17.9506 25.3291C17.9506 19.3512 19.0151 14.0468 20.6451 10.321C21.4615 8.45484 22.3757 7.08588 23.2766 6.2149C24.1667 5.35438 24.9296 5.0791 25.5443 5.0791V0.579102C23.4407 0.579102 21.6141 1.56302 20.1488 2.97963C18.6943 4.38577 17.4873 6.31186 16.5224 8.51736C14.5896 12.935 13.4506 18.8806 13.4506 25.3291H17.9506ZM25.5443 50.0791C27.6479 50.0791 29.4745 49.0952 30.9398 47.6786C32.3943 46.2724 33.6013 44.3463 34.5662 42.1408C36.499 37.7232 37.6381 31.7776 37.6381 25.3291H33.1381C33.1381 31.307 32.0735 36.6114 30.4435 40.3372C29.6271 42.2034 28.713 43.5723 27.8121 44.4433C26.922 45.3038 26.159 45.5791 25.5443 45.5791V50.0791ZM37.6381 25.3291C37.6381 18.8806 36.499 12.935 34.5662 8.51736C33.6013 6.31186 32.3943 4.38577 30.9398 2.97963C29.4745 1.56302 27.6479 0.579102 25.5443 0.579102V5.0791C26.159 5.0791 26.922 5.35438 27.8121 6.2149C28.713 7.08588 29.6271 8.45484 30.4435 10.321C32.0735 14.0468 33.1381 19.3512 33.1381 25.3291H37.6381ZM3.04431 27.5791L46.6381 27.5791L46.6381 23.0791L3.04431 23.0791L3.04431 27.5791Z" fill="white"/>
</svg>
