<svg width="65" height="65" viewBox="0 0 65 65" fill="none" xmlns="http://www.w3.org/2000/svg">
<rect x="0.164062" y="0.0808105" width="64" height="64" rx="16" fill="url(#paint0_linear_374_80)"/>
<path d="M46.1807 23.6807V26.7307C46.1807 27.7974 45.6807 28.7974 44.8141 29.414L26.4807 42.8474C25.2974 43.714 23.6807 43.714 22.5141 42.8307L20.1141 41.0307C19.0307 40.214 18.1474 38.4474 18.1474 37.0974V23.6807C18.1474 21.814 19.5807 19.7474 21.3307 19.0974L30.4474 15.6807C31.3974 15.3307 32.9307 15.3307 33.8807 15.6807L42.9974 19.0974C44.7474 19.7474 46.1807 21.814 46.1807 23.6807Z" fill="white"/>
<path d="M43.5307 32.6475C44.6307 31.8475 46.1807 32.6309 46.1807 33.9975V37.1309C46.1807 38.4809 45.2974 40.2309 44.214 41.0475L35.0974 47.8642C34.2974 48.4475 33.2307 48.7475 32.164 48.7475C31.0974 48.7475 30.0307 48.4475 29.2307 47.8475L27.8474 46.8142C26.9474 46.1475 26.9474 44.7975 27.864 44.1309L43.5307 32.6475Z" fill="white"/>
<defs>
<linearGradient id="paint0_linear_374_80" x1="32.1641" y1="0.0808105" x2="32.1641" y2="64.0808" gradientUnits="userSpaceOnUse">
<stop stop-color="#9C25EA" stop-opacity="0.760784"/>
<stop offset="1" stop-color="#701CB0"/>
</linearGradient>
</defs>
</svg>
