<svg width="65" height="65" viewBox="0 0 65 65" fill="none" xmlns="http://www.w3.org/2000/svg">
<rect x="0.164062" y="0.0808105" width="64" height="64" rx="16" fill="url(#paint0_linear_2_4419)"/>
<path d="M48.4807 46.6809L47.2807 45.4809C47.8974 44.5476 48.2641 43.4142 48.2641 42.2142C48.2641 38.9142 45.5974 36.2476 42.2974 36.2476C38.9974 36.2476 36.3307 38.9142 36.3307 42.2142C36.3307 45.5142 38.9974 48.1809 42.2974 48.1809C43.5141 48.1809 44.6307 47.8142 45.5641 47.1976L46.7641 48.3976C46.9974 48.6309 47.3141 48.7476 47.6141 48.7476C47.9307 48.7476 48.2307 48.6309 48.4641 48.3976C48.9474 47.9142 48.9474 47.1476 48.4807 46.6809Z" fill="white"/>
<path d="M15.5474 36.4641C15.5474 36.5141 15.5141 36.5808 15.5141 36.6308C17.0474 39.6974 19.5474 42.2141 22.6141 43.7308C22.6641 43.7308 22.7307 43.6974 22.7807 43.6974C22.2141 41.7641 21.7807 39.7808 21.4641 37.7974C19.4641 37.4641 17.4807 37.0308 15.5474 36.4641Z" fill="white"/>
<path d="M43.9474 22.7975C42.3807 19.5142 39.7307 16.8642 36.4641 15.3142C37.0641 17.2975 37.5641 19.3309 37.8974 21.3642C39.9307 21.6975 41.9641 22.1809 43.9474 22.7975Z" fill="white"/>
<path d="M15.3807 22.7975C17.3807 22.1975 19.4141 21.6975 21.4474 21.3642C21.7807 19.3808 22.1974 17.4142 22.7641 15.4808C22.7141 15.4808 22.6474 15.4475 22.5974 15.4475C19.4641 16.9975 16.9141 19.6142 15.3807 22.7975Z" fill="white"/>
<path d="M35.1974 21.0142C34.7974 18.8476 34.2974 16.6809 33.5807 14.5809C33.5474 14.4642 33.5474 14.3642 33.5307 14.2309C32.2974 13.9309 30.9974 13.7476 29.6641 13.7476C28.3141 13.7476 27.0307 13.9309 25.7807 14.2476C25.7641 14.3642 25.7807 14.4642 25.7474 14.5976C25.0474 16.6976 24.5307 18.8476 24.1307 21.0142C27.8141 20.6142 31.5141 20.6142 35.1974 21.0142Z" fill="white"/>
<path d="M21.0974 24.0474C18.9141 24.4474 16.7807 24.964 14.6641 25.664C14.5474 25.6974 14.4474 25.6974 14.3307 25.714C14.0141 26.9474 13.8307 28.2474 13.8307 29.5807C13.8307 30.9307 14.0141 32.214 14.3307 33.464C14.4474 33.4807 14.5474 33.464 14.6807 33.4974C16.7807 34.1974 18.9307 34.714 21.1141 35.114C20.6974 31.4307 20.6974 27.7307 21.0974 24.0474Z" fill="white"/>
<path d="M44.9974 25.714C44.8807 25.714 44.7807 25.6974 44.6474 25.664C42.5474 24.964 40.3807 24.4474 38.2141 24.0474C38.6307 27.7307 38.6307 31.4307 38.2141 35.0974C40.3807 34.6974 42.5474 34.1974 44.6474 33.4807C44.7641 33.4474 44.8641 33.464 44.9974 33.4474C45.2974 32.1974 45.4974 30.914 45.4974 29.564C45.4974 28.2474 45.3141 26.964 44.9974 25.714Z" fill="white"/>
<path d="M24.1307 38.1475C24.5307 40.3309 25.0307 42.4809 25.7474 44.5809C25.7807 44.6975 25.7641 44.7975 25.7807 44.9309C27.0307 45.2309 28.3141 45.4142 29.6641 45.4142C30.9974 45.4142 32.2974 45.2309 33.5307 44.9142C33.5474 44.7975 33.5474 44.6975 33.5807 44.5642C34.2807 42.4642 34.7974 40.3142 35.1974 38.1309C33.3641 38.3309 31.5141 38.4809 29.6641 38.4809C27.8141 38.4809 25.9641 38.3475 24.1307 38.1475Z" fill="white"/>
<path d="M23.7474 23.6641C23.2474 27.5974 23.2474 31.5641 23.7474 35.5141C27.6807 36.0141 31.6474 36.0141 35.5974 35.5141C36.0974 31.5807 36.0974 27.6141 35.5974 23.6641C31.6474 23.1641 27.6807 23.1641 23.7474 23.6641Z" fill="white"/>
<defs>
<linearGradient id="paint0_linear_2_4419" x1="32.1641" y1="0.0808105" x2="32.1641" y2="64.0808" gradientUnits="userSpaceOnUse">
<stop stop-color="#9C25EA" stop-opacity="0.760784"/>
<stop offset="1" stop-color="#701CB0"/>
</linearGradient>
</defs>
</svg>
