<svg width="199" height="71" viewBox="0 0 199 71" fill="none" xmlns="http://www.w3.org/2000/svg">
<g clip-path="url(#clip0_294_79)">
<path d="M102.575 35.4257C102.702 42.0058 98.692 48.6698 89.5796 48.6888L79.332 48.7117L79.2784 22.6851L89.5223 22.6661C98.4474 22.647 102.449 28.9944 102.575 35.4257ZM84.1901 43.9779H89.5414C95.466 43.9779 97.8014 39.6446 97.6829 35.4066C97.5606 31.3556 95.1678 27.3084 89.507 27.3198H84.1557L84.1901 43.9779Z" fill="white"/>
<path d="M105.282 34.453L119.042 34.4263V38.5879L105.282 38.6184V34.453Z" fill="white"/>
<path d="M137.064 48.7004H131.961L121.064 22.5861H126.576L134.48 42.8298L142.335 22.5518H147.851L137.064 48.7004Z" fill="white"/>
<path d="M163.201 40.8729H155.824V48.5325H150.905L150.848 22.5059C154.949 22.5059 159.046 22.4525 163.144 22.4448C175.903 22.4258 175.995 40.8462 163.201 40.8729ZM155.817 36.3908H163.194C169.489 36.3908 169.432 27.1558 163.171 27.1711H155.797L155.817 36.3908Z" fill="white"/>
<path d="M193.195 22.4258H198.111L198.168 48.4905H195.11V48.5287L181.35 30.9818L181.388 48.5287H176.469L176.415 22.5021H180.402L193.214 38.6109L193.195 22.4258Z" fill="white"/>
<path d="M30.6814 70.5191C27.5815 64.6524 23.9656 57.7252 23.9656 57.7252H23.9847C21.8756 57.7053 19.774 57.4715 17.7123 57.0271C16.6407 56.7795 15.584 56.4713 14.5474 56.104C19.1176 61.7399 24.5649 66.6069 30.6814 70.5191Z" fill="url(#paint0_linear_294_79)"/>
<path d="M6.2836 40.6055C7.42129 42.6581 9.06619 44.3862 11.0619 45.6254C13.0576 46.8646 15.3378 47.5737 17.6856 47.6853C22.2341 47.9867 26.8974 48.3109 31.3618 47.6434C39.5607 46.4151 44.0558 37.0313 40.2373 29.6922C37.9706 25.3321 34.2209 22.8794 29.2061 22.6887C26.6604 22.5895 24.1109 22.7115 21.5614 22.6429C20.56 22.62 20.2733 22.9442 20.2771 23.9246C20.3153 30.4093 20.2962 36.894 20.2962 43.352V44.8778C20.0541 44.8443 19.8159 44.7868 19.5853 44.7062C14.0009 41.7881 10.8971 37.1801 10.6793 30.9052C10.4843 25.2711 10.6372 19.6218 10.641 13.9801C10.641 13.7512 10.6755 13.5185 10.706 13.1676C11.1609 13.1371 11.5813 13.0875 12.0018 13.0875C17.5327 13.0875 23.0865 13.0608 28.5983 13.0875H28.8124H28.9156C38.7618 12.4848 52.805 21.8609 61.6002 28.6355C62.9442 21.8174 63.2163 14.8319 62.4067 7.93021C62.4067 7.93021 37.2788 -9.8875 0.607455 7.93021C-0.0820692 13.9056 0.0258964 19.9458 0.928528 25.8929C1.43307 28.0862 1.81913 30.1842 2.53391 32.1602C3.53278 35.0798 4.78754 37.9058 6.2836 40.6055Z" fill="url(#paint1_linear_294_79)"/>
<path d="M28.9155 13.0726H28.8123C44.0596 13.2824 54.4448 27.2322 50.2173 41.9105C47.6908 50.7107 39.1326 57.348 29.8329 57.6188C27.8835 57.676 25.9265 57.7447 23.9733 57.7027H23.9542C23.9542 57.7027 27.5701 64.6299 30.67 70.4967C31.1898 70.8171 31.4803 70.9773 31.4803 70.9773H31.5109C31.5109 70.9773 55.752 57.5692 61.5849 28.5978C52.805 21.8346 38.7733 12.4699 28.9155 13.0726Z" fill="url(#paint2_linear_294_79)"/>
<path d="M28.9155 13.0726H28.8123C44.0596 13.2824 54.4448 27.2322 50.2173 41.9105C47.6908 50.7107 39.1326 57.348 29.8329 57.6188C27.8835 57.676 25.9265 57.7447 23.9733 57.7027H23.9542C23.9542 57.7027 27.5701 64.6299 30.67 70.4967C31.1898 70.8171 31.4803 70.9773 31.4803 70.9773H31.5109C31.5109 70.9773 55.752 57.5692 61.5849 28.5978C52.805 21.8346 38.7733 12.4699 28.9155 13.0726Z" fill="url(#paint3_linear_294_79)"/>
</g>
<defs>
<linearGradient id="paint0_linear_294_79" x1="22.6163" y1="71.1142" x2="22.6163" y2="-7.21729" gradientUnits="userSpaceOnUse">
<stop stop-color="#9C25EA"/>
<stop offset="1" stop-color="#701CB0"/>
</linearGradient>
<linearGradient id="paint1_linear_294_79" x1="31.5071" y1="71.1142" x2="31.5071" y2="-7.21732" gradientUnits="userSpaceOnUse">
<stop stop-color="#9C25EA"/>
<stop offset="1" stop-color="#701CB0"/>
</linearGradient>
<linearGradient id="paint2_linear_294_79" x1="42.7829" y1="71.1146" x2="42.7829" y2="-7.21692" gradientUnits="userSpaceOnUse">
<stop stop-color="#9C25EA"/>
<stop offset="1" stop-color="#701CB0"/>
</linearGradient>
<linearGradient id="paint3_linear_294_79" x1="54.3607" y1="59.7931" x2="33.3138" y2="33.511" gradientUnits="userSpaceOnUse">
<stop stop-color="#9C25EA"/>
<stop offset="1" stop-color="#701CB0"/>
</linearGradient>
<clipPath id="clip0_294_79">
<rect width="198" height="71" fill="white" transform="translate(0.164062)"/>
</clipPath>
</defs>
</svg>
