<svg width="60" height="28" viewBox="0 0 60 28" fill="none" xmlns="http://www.w3.org/2000/svg">
<g clip-path="url(#clip0_90_41343)">
<path d="M36.0454 23.3943L34.479 24.8808L32.1972 16.3747L40.7057 18.6468L39.2359 20.2147C40.3768 21.4946 41.8026 22.2464 43.4029 22.6358C48.2072 23.8006 52.9556 21.0815 54.3356 16.4255C55.0182 14.1817 54.7941 11.7602 53.7115 9.67931C52.6289 7.59842 50.7736 6.02347 48.5429 5.29159C45.0049 4.11996 41.7873 4.90895 39.1071 7.55528C36.4761 10.1525 33.8704 12.7785 31.253 15.3927C28.5982 18.0458 25.957 20.7158 23.2852 23.3503C16.1347 30.3987 4.26955 27.688 0.941765 18.2557C-1.72318 10.6994 2.87268 2.47257 10.8302 0.699885C15.226 -0.278732 19.1607 0.830254 22.6071 3.70515C22.8021 3.87446 22.9937 4.03192 23.1903 4.19277C23.2885 4.25263 23.3785 4.32488 23.4582 4.40778L24.5974 2.73837L24.8957 2.93139L27.1521 11.3309L18.6267 9.04859L20.1321 7.46723C18.5623 5.9028 16.7501 5.02576 14.6191 4.85137C9.95886 4.47042 5.8038 7.42998 4.88158 11.7542C3.88138 16.4492 6.23776 20.8767 10.7912 22.4072C14.2868 23.5924 17.5112 22.8373 20.1643 20.2062C25.4603 14.9575 30.7139 9.67674 35.9912 4.41455C43.1333 -2.70666 54.9679 -0.0603383 58.4025 9.42276C61.103 16.8724 56.5377 25.1501 48.6175 26.9735C44.2014 27.9894 40.2294 26.9041 36.7507 23.9987C36.5405 23.8277 36.3319 23.6415 36.0454 23.3943Z" fill="url(#paint0_linear_90_41343)"/>
</g>
<defs>
<linearGradient id="paint0_linear_90_41343" x1="0.182098" y1="0.351563" x2="23.4916" y2="45.6939" gradientUnits="userSpaceOnUse">
<stop stop-color="#7C5DF7"/>
<stop offset="1" stop-color="#C45EFF"/>
</linearGradient>
<clipPath id="clip0_90_41343">
<rect width="59" height="27" fill="white" transform="translate(0.178711 0.354736)"/>
</clipPath>
</defs>
</svg>
