<svg width="47" height="58" viewBox="0 0 47 58" fill="none" xmlns="http://www.w3.org/2000/svg">
<g clip-path="url(#clip0_90_41296)">
<path d="M32.3815 21.5729H32.2492C28.7444 21.7125 26.2122 20.8391 24.7234 20.059C23.9555 19.6633 23.043 19.6633 22.2751 20.059C20.787 20.8391 18.2663 21.7125 14.75 21.5729C14.0298 21.5378 13.3096 21.7939 12.7941 22.2716C12.2778 22.7494 12.0016 23.3779 12.0016 24.0647V31.017C12.0016 35.5237 14.2822 39.7504 18.0986 42.3244L22.0111 44.9797C22.4551 45.2821 22.9714 45.4336 23.4992 45.4336C24.0271 45.4336 24.5434 45.2821 24.9873 44.9909L28.8999 42.3244C32.7047 39.7624 34.9853 35.5356 34.9853 31.0282L34.9976 24.0647C34.9976 23.3892 34.7214 22.7494 34.2051 22.2716C33.7257 21.817 33.054 21.5729 32.3815 21.5729ZM23.5 37.6192C20.223 37.6192 17.5592 35.034 17.5592 31.8553C17.5592 28.676 20.2237 26.0915 23.5 26.0915C26.7762 26.0915 29.4408 28.6767 29.4408 31.8553C29.4408 35.034 26.7762 37.6192 23.5 37.6192Z" fill="url(#paint0_linear_90_41296)"/>
<path d="M25.2968 28.8289L22.8853 32.2166L22.2288 31.1916C21.9533 30.7602 21.3705 30.629 20.9265 30.8963C20.4826 31.1643 20.3466 31.7297 20.6221 32.1598L22.0408 34.3752C22.2093 34.639 22.5028 34.8011 22.8217 34.8095C22.8297 34.8095 22.8376 34.8095 22.8449 34.8095C23.1551 34.8095 23.4465 34.6614 23.6236 34.4138L26.855 29.8727C27.1515 29.456 27.0438 28.8843 26.6143 28.5959C26.1811 28.3083 25.594 28.41 25.2968 28.8289Z" fill="url(#paint1_linear_90_41296)"/>
<path d="M42.8061 0.876709H4.19382C2.08243 0.876709 0.361511 2.54637 0.361511 4.59486V32.8809C0.361511 34.9294 2.08243 36.599 4.19382 36.599H11.656C11.3667 35.8835 11.1281 35.1539 10.9546 34.4032H4.19382C3.32613 34.4032 2.62474 33.7227 2.62474 32.8809V8.43929H44.3752V32.8809C44.3752 33.7227 43.6738 34.4032 42.8061 34.4032H36.0381C35.8646 35.1539 35.6332 35.8905 35.344 36.599H42.8061C44.9175 36.599 46.6384 34.9294 46.6384 32.8809V4.59486C46.6384 2.54637 44.9175 0.876709 42.8061 0.876709ZM6.81136 6.39782C5.87136 6.39782 5.1049 5.6612 5.1049 4.7492C5.1049 3.83019 5.87136 3.09357 6.81136 3.09357C7.75136 3.09357 8.51059 3.83019 8.51059 4.7492C8.51059 5.6612 7.75136 6.39782 6.81136 6.39782ZM12.1187 6.39782C11.1787 6.39782 10.4123 5.6612 10.4123 4.7492C10.4123 3.83019 11.1787 3.09357 12.1187 3.09357C13.0587 3.09357 13.818 3.83019 13.818 4.7492C13.818 5.6612 13.0587 6.39782 12.1187 6.39782ZM17.4261 6.39782C16.4861 6.39782 15.7197 5.6612 15.7197 4.7492C15.7197 3.83019 16.4861 3.09357 17.4261 3.09357C18.3661 3.09357 19.1254 3.83019 19.1254 4.7492C19.1254 5.6612 18.3661 6.39782 17.4261 6.39782ZM41.8951 5.59105C41.8951 6.03302 41.5191 6.40483 41.0563 6.40483H22.2924C21.8297 6.40483 21.4537 6.03302 21.4537 5.59105V3.90736C21.4537 3.45837 21.8297 3.09357 22.2924 3.09357H41.0563C41.5191 3.09357 41.8951 3.45837 41.8951 3.90736V5.59105Z" fill="url(#paint2_linear_90_41296)"/>
</g>
<defs>
<linearGradient id="paint0_linear_90_41296" x1="12.0016" y1="19.7622" x2="38.5743" y2="40.9472" gradientUnits="userSpaceOnUse">
<stop stop-color="#7C5DF7"/>
<stop offset="1" stop-color="#C45EFF"/>
</linearGradient>
<linearGradient id="paint1_linear_90_41296" x1="20.4796" y1="28.4327" x2="27.2226" y2="34.5903" gradientUnits="userSpaceOnUse">
<stop stop-color="#7C5DF7"/>
<stop offset="1" stop-color="#C45EFF"/>
</linearGradient>
<linearGradient id="paint2_linear_90_41296" x1="0.361511" y1="0.876709" x2="37.9104" y2="44.1691" gradientUnits="userSpaceOnUse">
<stop stop-color="#7C5DF7"/>
<stop offset="1" stop-color="#C45EFF"/>
</linearGradient>
<clipPath id="clip0_90_41296">
<rect width="47" height="57" fill="white" transform="translate(0 0.354736)"/>
</clipPath>
</defs>
</svg>
