<svg width="1261" height="744" viewBox="0 0 1261 744" fill="none" xmlns="http://www.w3.org/2000/svg">
<circle cx="403.544" cy="40.3291" r="3" fill="white" fill-opacity="0.25"/>
<circle cx="39.5443" cy="100.329" r="3" fill="white" fill-opacity="0.25"/>
<circle cx="139.544" cy="340.329" r="3" fill="white" fill-opacity="0.25"/>
<circle cx="139.544" cy="676.329" r="3" fill="white" fill-opacity="0.25"/>
<circle cx="247.544" cy="544.329" r="3" fill="white" fill-opacity="0.25"/>
<circle cx="3.54431" cy="488.329" r="3" fill="white" fill-opacity="0.25"/>
<circle cx="621.544" cy="409.329" r="3" fill="white" fill-opacity="0.25"/>
<circle cx="857.544" cy="194.329" r="3" fill="white" fill-opacity="0.25"/>
<circle cx="889.544" cy="384.329" r="3" fill="white" fill-opacity="0.25"/>
<circle cx="1257.54" cy="340.329" r="3" fill="white" fill-opacity="0.25"/>
<circle cx="1137.54" cy="480.329" r="3" fill="white" fill-opacity="0.25"/>
<circle cx="1013.54" cy="592.329" r="3" fill="white" fill-opacity="0.25"/>
<circle cx="1209.54" cy="740.329" r="3" fill="white" fill-opacity="0.25"/>
<circle cx="678.544" cy="3.3291" r="3" fill="white" fill-opacity="0.25"/>
<circle cx="872.544" cy="61.3291" r="3" fill="white" fill-opacity="0.25"/>
<circle cx="1160.54" cy="61.3291" r="3" fill="white" fill-opacity="0.25"/>
<circle cx="1068.54" cy="229.329" r="3" fill="white" fill-opacity="0.25"/>
<circle cx="420.544" cy="537.329" r="3" fill="white" fill-opacity="0.25"/>
<circle cx="218.544" cy="170.329" r="3" fill="white" fill-opacity="0.25"/>
<circle cx="382.544" cy="398.329" r="3" fill="white" fill-opacity="0.25"/>
<circle cx="386.544" cy="174.329" r="3" fill="white" fill-opacity="0.25"/>
<circle cx="673.544" cy="508.829" r="3" fill="white" fill-opacity="0.25"/>
</svg>
